<?xml version="1.0" encoding="UTF-8" standalone="no"?>
<!DOCTYPE svg PUBLIC "-//W3C//DTD SVG 1.1//EN" "http://www.w3.org/Graphics/SVG/1.1/DTD/svg11.dtd">
<svg xmlns="http://www.w3.org/2000/svg" xmlns:xlink="http://www.w3.org/1999/xlink" version="1.1" width="595.32pt" height="841.92pt" viewBox="0 0 595.32 841.92">
<g enable-background="new">
<g>
<g id="Layer-1" data-name="P">
<clipPath id="cp0">
<path transform="matrix(1,0,0,-1,0,841.92)" d="M .000008871 0 L 595.32 0 L 595.32 841.92 L .000008871 841.92 Z " fill-rule="evenodd"/>
</clipPath>
<g clip-path="url(#cp0)">
<text xml:space="preserve" transform="matrix(1 0 -0 1 0 841.92)" font-size="11.04" font-family="Calibri"><tspan y="-759.48" x="72.024"> </tspan></text>
</g>
</g>
<g id="Layer-1" data-name="P">
<path transform="matrix(1,0,0,-1,0,841.92)" d="M 37.3 30.67 L 422.99 30.67 L 422.99 681.20999 L 37.3 681.20999 Z " fill="#4472c4" fill-rule="evenodd"/>
<path transform="matrix(1,0,0,-1,0,841.92)" d="M 422.99 681.21 L 551.56 809.77 L 551.56 159.23 L 422.99 30.67 Z " fill="#375c9e" fill-rule="evenodd"/>
<path transform="matrix(1,0,0,-1,0,841.92)" d="M 37.3 681.21 L 165.86 809.77 L 551.56 809.77 L 422.99 681.21 Z " fill="#698ed0" fill-rule="evenodd"/>
<path transform="matrix(1,0,0,-1,0,841.92)" stroke-width="6" stroke-linecap="butt" stroke-miterlimit="10" stroke-linejoin="miter" fill="none" stroke="#9dc3e6" d="M 37.3 681.21 L 165.86 809.77 L 551.56 809.77 L 551.56 159.23 L 422.99 30.67 L 37.3 30.67 Z M 37.3 681.21 L 422.99 681.21 L 551.56 809.77 M 422.99 681.21 L 422.99 30.67 "/>
</g>
<clipPath id="cp1">
<path transform="matrix(1,0,0,-1,0,841.92)" d="M 40.32 37.2 L 420.07 37.2 L 420.07 674.62 L 40.32 674.62 Z " fill-rule="evenodd"/>
</clipPath>
<g clip-path="url(#cp1)">
<g id="Layer-1" data-name="P">
<clipPath id="cp2">
<path transform="matrix(1,0,0,-1,0,841.92)" d="M 40.32 37.2 L 420.07 37.2 L 420.07 674.62 L 40.32 674.62 Z " fill-rule="evenodd"/>
</clipPath>
<g clip-path="url(#cp2)">
<text fill="#ffffff" xml:space="preserve" transform="matrix(1 0 -0 1 0 841.92)" font-size="11.04" font-family="Calibri"><tspan y="-356.69" x="230.21"> </tspan></text>
</g>
</g>
</g>
<g id="Layer-1" data-name="P">
<path transform="matrix(1,0,0,-1,0,841.92)" stroke-width="2.25" stroke-linecap="butt" stroke-miterlimit="10" stroke-linejoin="miter" fill="none" stroke="#1f4e79" d="M 118.1 755.82 L 492.25 755.82 "/>
</g>
<clipPath id="cp3">
<path transform="matrix(1,0,0,-1,0,841.92)" d="M 72.264 359.81 L 385.514 359.81 L 385.514 484.51 L 72.264 484.51 Z " fill-rule="evenodd"/>
</clipPath>
<g clip-path="url(#cp3)">
<g id="Layer-1" data-name="P">
<clipPath id="cp4">
<path transform="matrix(1,0,0,-1,0,841.92)" d="M 72.264 359.81 L 385.514 359.81 L 385.514 484.51 L 72.264 484.51 Z " fill-rule="evenodd"/>
</clipPath>
<g clip-path="url(#cp4)">
<text xml:space="preserve" transform="matrix(1 0 -0 1 0 841.92)" font-size="120.02" font-family="CooperBlack"><tspan y="-374.33" x="96.624 174.04543 267.4295">SOY</tspan></text>
</g>
<clipPath id="cp5">
<path transform="matrix(1,0,0,-1,0,841.92)" d="M 72.264 359.81 L 385.514 359.81 L 385.514 484.51 L 72.264 484.51 Z " fill-rule="evenodd"/>
</clipPath>
<g clip-path="url(#cp5)">
<text xml:space="preserve" transform="matrix(1 0 -0 1 0 841.92)" font-size="120.02" font-family="CooperBlack"><tspan y="-374.33" x="361.03"> </tspan></text>
</g>
</g>
</g>
</g>
</g>
</svg>
